# Alias OBJ Model File
# Exported from SketchUp, (c) 2000-2012 Trimble Navigation Limited
# File units = inches

mtllib orig.mtl

g Mesh1 Model

usemtl FrontColor
v 1 0 -0
vt -1 0
vn 0 -1 -0
v 0 0 1
vt 0 -1
v 0 0 -0
vt 0 0
f 1/1/1 2/2/1 3/3/1

v 1 0 1
vt -1 -1
f 2/2/1 1/1/1 4/4/1

vn 1 0 -0
v 1 1 1
vt -1 1
f 1/3/2 5/5/2 4/1/2

v 1 1 -0
vt 0 1
f 5/5/2 1/3/2 6/6/2

vn 0 0 -1
v 0 1 -0
f 1/1/3 7/6/3 6/5/3

f 7/6/3 1/1/3 3/3/3

vt 1 0
vn -1 0 -0
f 2/7/4 7/6/4 3/3/4

v 0 1 1
vt 1 1
f 7/6/4 2/7/4 8/8/4

vn 0 0 1
f 2/3/5 5/8/5 8/6/5

f 5/8/5 2/3/5 4/7/5

vt 1 -1
vn 0 1 -0
f 5/9/6 7/3/6 8/2/6

f 7/3/6 5/9/6 6/7/6

