# Alias OBJ Model File
# Exported from SketchUp, (c) 2000-2012 Trimble Navigation Limited
# File units = inches

mtllib 1_2ex.mtl

g Mesh1 Model

usemtl FrontColor
v 0 0.625 0.375
vt 0.375 0.625
vn -1 0 -0
v 0 0.375 0.625
vt 0.625 0.375
v 0 0.625 0.625
vt 0.625 0.625
f 1/1/1 2/2/1 3/3/1

v 0 0.375 0.375
vt 0.375 0.375
f 2/2/1 1/1/1 4/4/1

vt 0 0.625
vn 0 0 -1
v 2 0.375 0.375
vt -2 0.375
vt 0 0.375
f 1/5/2 5/6/2 4/7/2

v 2 0.625 0.375
vt -2 0.625
f 5/6/2 1/5/2 6/8/2

vt 0 -0.375
vn 0 1 -0
v 2 0.625 0.625
vt 2 -0.625
vt 2 -0.375
f 1/9/3 7/10/3 6/11/3

vt 0 -0.625
f 7/10/3 1/9/3 3/12/3

vn 0 0 1
vt 2 0.625
f 2/7/4 7/13/4 3/5/4

v 2 0.375 0.625
vt 2 0.375
f 7/13/4 2/7/4 8/14/4

vn 0 -1 -0
vt -2 -0.375
vt -2 -0.625
f 2/12/5 5/15/5 8/16/5

f 5/15/5 2/12/5 4/9/5

vt -0.375 0.375
vn 1 0 -0
vt -0.625 0.625
vt -0.625 0.375
f 5/17/6 7/18/6 8/19/6

vt -0.375 0.625
f 7/18/6 5/17/6 6/20/6

